{"asset":{"version":"2.0","generator":"Babylon2Gltf2017","copyright":"2017 (c) BabylonJS"},"extensionsUsed":[],"extensionsRequired":[],"scene":0,"scenes":[{"nodes":[0,1,2,3,4,5,6,7]}],"nodes":[{"mesh":0,"translation":[-7.96138,18.96283,-7.954033],"rotation":[0.7071068,0.0,0.0,-0.707106769],"scale":[1.0,1.0,1.0],"name":"Object_67"},{"mesh":1,"translation":[20.2633514,55.7488174,-46.48169],"rotation":[0.7071068,0.0,0.0,-0.707106769],"scale":[1.0,1.0,1.0],"name":"Object_69"},{"mesh":2,"translation":[-15.2918854,36.43177,-0.603439331],"rotation":[0.7071068,0.0,0.0,-0.707106769],"scale":[1.0,1.0,1.0],"name":"Object_71"},{"mesh":3,"translation":[-25.0594635,42.7774124,18.3636322],"rotation":[0.7071068,0.0,0.0,-0.707106769],"scale":[1.0,1.0,1.0],"name":"Object_73"},{"mesh":4,"translation":[32.52678,11.4570847,27.0760269],"rotation":[0.7071068,0.0,0.0,-0.707106769],"scale":[1.0,1.0,1.0],"name":"Object_75"},{"mesh":5,"translation":[-51.2274323,23.647377,-44.46375],"rotation":[0.7071068,0.0,0.0,-0.707106769],"scale":[1.0,1.0,1.0],"name":"Object_77"},{"mesh":6,"translation":[-8.091629,58.7250366,23.5166473],"rotation":[0.7071068,0.0,0.0,-0.707106769],"scale":[1.0,1.0,1.0],"name":"Object_79"},{"mesh":7,"translation":[43.7870941,61.1627274,-37.2214279],"rotation":[0.7071068,0.0,0.0,-0.707106769],"scale":[1.0,1.0,1.0],"name":"Object_81"}],"meshes":[{"primitives":[{"attributes":{"POSITION":1,"NORMAL":2,"TEXCOORD_0":3},"indices":0,"mode":4,"material":0}],"name":"Object_67"},{"primitives":[{"attributes":{"POSITION":5,"NORMAL":6,"TEXCOORD_0":7},"indices":4,"mode":4,"material":1}],"name":"Object_69"},{"primitives":[{"attributes":{"POSITION":9,"NORMAL":10,"TEXCOORD_0":11},"indices":8,"mode":4,"material":2}],"name":"Object_71"},{"primitives":[{"attributes":{"POSITION":13,"NORMAL":14,"TEXCOORD_0":15},"indices":12,"mode":4,"material":3}],"name":"Object_73"},{"primitives":[{"attributes":{"POSITION":17,"NORMAL":18,"TEXCOORD_0":19},"indices":16,"mode":4,"material":4}],"name":"Object_75"},{"primitives":[{"attributes":{"POSITION":21,"NORMAL":22,"TEXCOORD_0":23},"indices":20,"mode":4,"material":4}],"name":"Object_77"},{"primitives":[{"attributes":{"POSITION":25,"NORMAL":26,"TEXCOORD_0":27},"indices":24,"mode":4,"material":5}],"name":"Object_79"},{"primitives":[{"attributes":{"POSITION":29,"NORMAL":30,"TEXCOORD_0":31},"indices":28,"mode":4,"material":6}],"name":"Object_81"}],"accessors":[{"bufferView":0,"componentType":5123,"count":2208,"type":"SCALAR","name":"accessorIndices"},{"bufferView":1,"componentType":5126,"count":2208,"max":[55.63521,63.7564926,19.0370827],"min":[-55.6351776,-63.7564926,-19.037075],"type":"VEC3","name":"accessorPositions"},{"bufferView":1,"byteOffset":26496,"componentType":5126,"count":2208,"type":"VEC3","name":"accessorNormals"},{"bufferView":2,"componentType":5126,"count":2208,"type":"VEC2","name":"accessorUVs"},{"bufferView":0,"byteOffset":4416,"componentType":5123,"count":2394,"type":"SCALAR","name":"accessorIndices"},{"bufferView":1,"byteOffset":52992,"componentType":5126,"count":2394,"max":[18.7515717,12.7513123,31.90289],"min":[-18.7515717,-12.7513046,-31.9028873],"type":"VEC3","name":"accessorPositions"},{"bufferView":1,"byteOffset":81720,"componentType":5126,"count":2394,"type":"VEC3","name":"accessorNormals"},{"bufferView":2,"byteOffset":17664,"componentType":5126,"count":2394,"type":"VEC2","name":"accessorUVs"},{"bufferView":0,"byteOffset":9204,"componentType":5123,"count":3126,"type":"SCALAR","name":"accessorIndices"},{"bufferView":1,"byteOffset":110448,"componentType":5126,"count":3126,"max":[17.390976,15.9341965,28.3493271],"min":[-17.3909149,-15.9342031,-28.3493271],"type":"VEC3","name":"accessorPositions"},{"bufferView":1,"byteOffset":147960,"componentType":5126,"count":3126,"type":"VEC3","name":"accessorNormals"},{"bufferView":2,"byteOffset":36816,"componentType":5126,"count":3126,"type":"VEC2","name":"accessorUVs"},{"bufferView":0,"byteOffset":15456,"componentType":5123,"count":2892,"type":"SCALAR","name":"accessorIndices"},{"bufferView":1,"byteOffset":185472,"componentType":5126,"count":2892,"max":[19.68193,15.950388,30.94812],"min":[-19.68187,-15.950388,-30.9481277],"type":"VEC3","name":"accessorPositions"},{"bufferView":1,"byteOffset":220176,"componentType":5126,"count":2892,"type":"VEC3","name":"accessorNormals"},{"bufferView":2,"byteOffset":61824,"componentType":5126,"count":2892,"type":"VEC2","name":"accessorUVs"},{"bufferView":0,"byteOffset":21240,"componentType":5123,"count":180,"type":"SCALAR","name":"accessorIndices"},{"bufferView":1,"byteOffset":254880,"componentType":5126,"count":180,"max":[45.3957062,20.6245441,26.13842],"min":[-45.3956757,-20.62455,-26.1384087],"type":"VEC3","name":"accessorPositions"},{"bufferView":1,"byteOffset":257040,"componentType":5126,"count":180,"type":"VEC3","name":"accessorNormals"},{"bufferView":2,"byteOffset":84960,"componentType":5126,"count":180,"type":"VEC2","name":"accessorUVs"},{"bufferView":0,"byteOffset":21600,"componentType":5123,"count":180,"type":"SCALAR","name":"accessorIndices"},{"bufferView":1,"byteOffset":259200,"componentType":5126,"count":180,"max":[27.7004547,45.70239,18.6321774],"min":[-27.7004242,-45.7023926,-18.6321888],"type":"VEC3","name":"accessorPositions"},{"bufferView":1,"byteOffset":261360,"componentType":5126,"count":180,"type":"VEC3","name":"accessorNormals"},{"bufferView":2,"byteOffset":86400,"componentType":5126,"count":180,"type":"VEC2","name":"accessorUVs"},{"bufferView":0,"byteOffset":21960,"componentType":5123,"count":228,"type":"SCALAR","name":"accessorIndices"},{"bufferView":1,"byteOffset":263520,"componentType":5126,"count":228,"max":[1.60618591,7.483986,11.4397812],"min":[-1.6061554,-7.48397446,-11.4397812],"type":"VEC3","name":"accessorPositions"},{"bufferView":1,"byteOffset":266256,"componentType":5126,"count":228,"type":"VEC3","name":"accessorNormals"},{"bufferView":2,"byteOffset":87840,"componentType":5126,"count":228,"type":"VEC2","name":"accessorUVs"},{"bufferView":0,"byteOffset":22416,"componentType":5123,"count":444,"type":"SCALAR","name":"accessorIndices"},{"bufferView":1,"byteOffset":268992,"componentType":5126,"count":444,"max":[17.1904449,2.01552582,14.2392426],"min":[-17.1904449,-2.015522,-14.23925],"type":"VEC3","name":"accessorPositions"},{"bufferView":1,"byteOffset":274320,"componentType":5126,"count":444,"type":"VEC3","name":"accessorNormals"},{"bufferView":2,"byteOffset":89664,"componentType":5126,"count":444,"type":"VEC2","name":"accessorUVs"}],"bufferViews":[{"buffer":0,"byteLength":23304,"name":"bufferViewScalar"},{"buffer":0,"byteOffset":23304,"byteLength":279648,"byteStride":12,"name":"bufferViewFloatVec3"},{"buffer":0,"byteOffset":302952,"byteLength":93216,"byteStride":8,"name":"bufferViewFloatVec2"}],"buffers":[{"uri":"BoatWithKnight.bin","byteLength":396168}],"materials":[{"pbrMetallicRoughness":{"baseColorFactor":[1.0,1.0,1.0,1.0],"baseColorTexture":{"index":0},"metallicFactor":0.0,"roughnessFactor":0.7},"emissiveFactor":[0.0,0.0,0.0],"alphaMode":"BLEND","name":"boat_mat"},{"pbrMetallicRoughness":{"baseColorFactor":[1.0,1.0,1.0,1.0],"baseColorTexture":{"index":1},"metallicFactor":0.0,"roughnessFactor":0.7},"emissiveFactor":[0.0,0.0,0.0],"alphaMode":"BLEND","name":"knight_mat"},{"pbrMetallicRoughness":{"baseColorFactor":[1.0,1.0,1.0,1.0],"baseColorTexture":{"index":2},"metallicFactor":0.0,"roughnessFactor":0.7},"emissiveFactor":[0.0,0.0,0.0],"alphaMode":"BLEND","name":"peasant_mat"},{"pbrMetallicRoughness":{"baseColorFactor":[1.0,1.0,1.0,1.0],"baseColorTexture":{"index":3},"metallicFactor":0.0,"roughnessFactor":0.7},"emissiveFactor":[0.0,0.0,0.0],"alphaMode":"BLEND","name":"monk_material"},{"pbrMetallicRoughness":{"baseColorFactor":[0.129970834,0.09010417,0.07935938,1.0],"metallicFactor":0.0,"roughnessFactor":0.7},"emissiveFactor":[0.0,0.0,0.0],"alphaMode":"OPAQUE","name":"wood_mat"},{"pbrMetallicRoughness":{"baseColorFactor":[0.148331255,0.0753250048,0.0600364655,1.0],"metallicFactor":0.0,"roughnessFactor":0.7},"emissiveFactor":[0.0,0.0,0.0],"alphaMode":"OPAQUE","name":"wood_3_mat"},{"pbrMetallicRoughness":{"baseColorFactor":[1.0,1.0,1.0,1.0],"baseColorTexture":{"index":4},"metallicFactor":0.0,"roughnessFactor":0.7},"emissiveFactor":[0.0,0.0,0.0],"alphaMode":"BLEND","name":"sword_mat"}],"textures":[{"sampler":0,"source":0,"name":"boat_mat_baseColor.png"},{"sampler":1,"source":1,"name":"knight_mat_baseColor.png"},{"sampler":2,"source":2,"name":"peasant_mat_baseColor.png"},{"sampler":3,"source":3,"name":"monk_material_baseColor.png"},{"sampler":4,"source":4,"name":"sword_mat_baseColor.png"}],"images":[{"uri":"boat_mat_baseColor.png"},{"uri":"knight_mat_baseColor.png"},{"uri":"peasant_mat_baseColor.png"},{"uri":"monk_material_baseColor.png"},{"uri":"sword_mat_baseColor.png"}],"samplers":[{"magFilter":9729,"minFilter":9987,"wrapS":10497,"wrapT":10497},{"magFilter":9729,"minFilter":9987,"wrapS":10497,"wrapT":10497},{"magFilter":9729,"minFilter":9987,"wrapS":10497,"wrapT":10497},{"magFilter":9729,"minFilter":9987,"wrapS":10497,"wrapT":10497},{"magFilter":9729,"minFilter":9987,"wrapS":10497,"wrapT":10497}]}