{"asset":{"version":"2.0","generator":"Babylon2Gltf2017","copyright":"2017 (c) BabylonJS"},"extensionsUsed":[],"extensionsRequired":[],"scene":0,"scenes":[{"nodes":[0,1,2,3,4,5,6,7,8,9,10,11,12,13,14,15,16]}],"nodes":[{"mesh":0,"translation":[-231.989166,-89.2620239,-146.315643],"rotation":[5.338508E-08,0.707106769,0.707106769,-5.338508E-08],"scale":[1.0,1.0,1.0],"name":"Object_1"},{"mesh":1,"translation":[-231.989166,-89.2620239,-146.315643],"rotation":[5.338508E-08,0.707106769,0.707106769,-5.338508E-08],"scale":[1.0,1.0,1.0],"name":"Object_2"},{"mesh":2,"translation":[-231.989166,-89.2620239,-146.315643],"rotation":[5.338508E-08,0.707106769,0.707106769,-5.338508E-08],"scale":[1.0,1.0,1.0],"name":"Object_3"},{"mesh":3,"translation":[-231.989166,-89.2620239,-146.315643],"rotation":[5.338508E-08,0.707106769,0.707106769,-5.338508E-08],"scale":[1.0,1.0,1.0],"name":"Object_4"},{"mesh":4,"translation":[-231.989166,-89.2620239,-146.315643],"rotation":[5.338508E-08,0.707106769,0.707106769,-5.338508E-08],"scale":[1.0,1.0,1.0],"name":"Object_5"},{"mesh":5,"translation":[-231.989166,-89.2620239,-146.315643],"rotation":[5.338508E-08,0.707106769,0.707106769,-5.338508E-08],"scale":[1.0,1.0,1.0],"name":"Object_6"},{"mesh":6,"translation":[-231.989166,-89.2620239,-146.315643],"rotation":[5.338508E-08,0.707106769,0.707106769,-5.338508E-08],"scale":[1.0,1.0,1.0],"name":"Object_7"},{"mesh":7,"translation":[-231.989166,-89.2620239,-146.315643],"rotation":[5.338508E-08,0.707106769,0.707106769,-5.338508E-08],"scale":[1.0,1.0,1.0],"name":"Object_8"},{"mesh":8,"translation":[-231.989166,-89.2620239,-146.315643],"rotation":[5.338508E-08,0.707106769,0.707106769,-5.338508E-08],"scale":[1.0,1.0,1.0],"name":"Object_9"},{"mesh":9,"translation":[-231.989166,-89.2620239,-146.315643],"rotation":[5.338508E-08,0.707106769,0.707106769,-5.338508E-08],"scale":[1.0,1.0,1.0],"name":"Object_10"},{"mesh":10,"translation":[-231.989166,-89.2620239,-146.315643],"rotation":[5.338508E-08,0.707106769,0.707106769,-5.338508E-08],"scale":[1.0,1.0,1.0],"name":"Object_11"},{"mesh":11,"translation":[-231.989166,-89.2620239,-146.315643],"rotation":[5.338508E-08,0.707106769,0.707106769,-5.338508E-08],"scale":[1.0,1.0,1.0],"name":"Object_12"},{"mesh":12,"translation":[-231.989166,-89.2620239,-146.315643],"rotation":[5.338508E-08,0.707106769,0.707106769,-5.338508E-08],"scale":[1.0,1.0,1.0],"name":"Object_13"},{"mesh":13,"translation":[-231.989166,-89.2620239,-146.315643],"rotation":[5.338508E-08,0.707106769,0.707106769,-5.338508E-08],"scale":[1.0,1.0,1.0],"name":"Object_14"},{"mesh":14,"translation":[-231.989166,-89.2620239,-146.315643],"rotation":[5.338508E-08,0.707106769,0.707106769,-5.338508E-08],"scale":[1.0,1.0,1.0],"name":"Object_15"},{"mesh":15,"translation":[-231.989166,-89.2620239,-146.315643],"rotation":[5.338508E-08,0.707106769,0.707106769,-5.338508E-08],"scale":[1.0,1.0,1.0],"name":"Object_16"},{"mesh":16,"translation":[-231.989166,-89.2620239,-146.315643],"rotation":[5.338508E-08,0.707106769,0.707106769,-5.338508E-08],"scale":[1.0,1.0,1.0],"name":"Object_363"}],"meshes":[{"primitives":[{"attributes":{"POSITION":1,"NORMAL":2,"TEXCOORD_0":3},"indices":0,"mode":4,"material":0}],"name":"Object_1"},{"primitives":[{"attributes":{"POSITION":5,"NORMAL":6,"TEXCOORD_0":7},"indices":4,"mode":4,"material":0}],"name":"Object_2"},{"primitives":[{"attributes":{"POSITION":9,"NORMAL":10,"TEXCOORD_0":11},"indices":8,"mode":4,"material":0}],"name":"Object_3"},{"primitives":[{"attributes":{"POSITION":13,"NORMAL":14,"TEXCOORD_0":15},"indices":12,"mode":4,"material":0}],"name":"Object_4"},{"primitives":[{"attributes":{"POSITION":17,"NORMAL":18,"TEXCOORD_0":19},"indices":16,"mode":4,"material":0}],"name":"Object_5"},{"primitives":[{"attributes":{"POSITION":21,"NORMAL":22,"TEXCOORD_0":23},"indices":20,"mode":4,"material":0}],"name":"Object_6"},{"primitives":[{"attributes":{"POSITION":25,"NORMAL":26,"TEXCOORD_0":27},"indices":24,"mode":4,"material":0}],"name":"Object_7"},{"primitives":[{"attributes":{"POSITION":29,"NORMAL":30,"TEXCOORD_0":31},"indices":28,"mode":4,"material":0}],"name":"Object_8"},{"primitives":[{"attributes":{"POSITION":33,"NORMAL":34,"TEXCOORD_0":35},"indices":32,"mode":4,"material":0}],"name":"Object_9"},{"primitives":[{"attributes":{"POSITION":37,"NORMAL":38,"TEXCOORD_0":39},"indices":36,"mode":4,"material":0}],"name":"Object_10"},{"primitives":[{"attributes":{"POSITION":41,"NORMAL":42,"TEXCOORD_0":43},"indices":40,"mode":4,"material":0}],"name":"Object_11"},{"primitives":[{"attributes":{"POSITION":45,"NORMAL":46,"TEXCOORD_0":47},"indices":44,"mode":4,"material":0}],"name":"Object_12"},{"primitives":[{"attributes":{"POSITION":49,"NORMAL":50,"TEXCOORD_0":51},"indices":48,"mode":4,"material":0}],"name":"Object_13"},{"primitives":[{"attributes":{"POSITION":53,"NORMAL":54,"TEXCOORD_0":55},"indices":52,"mode":4,"material":0}],"name":"Object_14"},{"primitives":[{"attributes":{"POSITION":57,"NORMAL":58,"TEXCOORD_0":59},"indices":56,"mode":4,"material":0}],"name":"Object_15"},{"primitives":[{"attributes":{"POSITION":61,"NORMAL":62,"TEXCOORD_0":63},"indices":60,"mode":4,"material":0}],"name":"Object_16"},{"primitives":[{"attributes":{"POSITION":65,"NORMAL":66,"TEXCOORD_0":67},"indices":64,"mode":4,"material":0}],"name":"Object_363"}],"accessors":[{"bufferView":0,"componentType":5123,"count":150,"type":"SCALAR","name":"accessorIndices"},{"bufferView":1,"componentType":5126,"count":150,"max":[422.704041,675.0251,227.4414],"min":[-16.2251129,384.4116,118.277061],"type":"VEC3","name":"accessorPositions"},{"bufferView":1,"byteOffset":1800,"componentType":5126,"count":150,"type":"VEC3","name":"accessorNormals"},{"bufferView":2,"componentType":5126,"count":150,"type":"VEC2","name":"accessorUVs"},{"bufferView":0,"byteOffset":300,"componentType":5123,"count":150,"type":"SCALAR","name":"accessorIndices"},{"bufferView":1,"byteOffset":3600,"componentType":5126,"count":150,"max":[-335.54425,-29.2375488,224.860931],"min":[-605.7175,-476.2276,110.43399],"type":"VEC3","name":"accessorPositions"},{"bufferView":1,"byteOffset":5400,"componentType":5126,"count":150,"type":"VEC3","name":"accessorNormals"},{"bufferView":2,"byteOffset":1200,"componentType":5126,"count":150,"type":"VEC2","name":"accessorUVs"},{"bufferView":0,"byteOffset":600,"componentType":5123,"count":150,"type":"SCALAR","name":"accessorIndices"},{"bufferView":1,"byteOffset":7200,"componentType":5126,"count":150,"max":[-547.3936,467.3345,295.2172],"min":[-773.568237,-286.673584,134.703842],"type":"VEC3","name":"accessorPositions"},{"bufferView":1,"byteOffset":9000,"componentType":5126,"count":150,"type":"VEC3","name":"accessorNormals"},{"bufferView":2,"byteOffset":2400,"componentType":5126,"count":150,"type":"VEC2","name":"accessorUVs"},{"bufferView":0,"byteOffset":900,"componentType":5123,"count":150,"type":"SCALAR","name":"accessorIndices"},{"bufferView":1,"byteOffset":10800,"componentType":5126,"count":150,"max":[32.58333,630.6428,200.538879],"min":[-405.188965,375.62027,94.91144],"type":"VEC3","name":"accessorPositions"},{"bufferView":1,"byteOffset":12600,"componentType":5126,"count":150,"type":"VEC3","name":"accessorNormals"},{"bufferView":2,"byteOffset":3600,"componentType":5126,"count":150,"type":"VEC2","name":"accessorUVs"},{"bufferView":0,"byteOffset":1200,"componentType":5123,"count":150,"type":"SCALAR","name":"accessorIndices"},{"bufferView":1,"byteOffset":14400,"componentType":5126,"count":150,"max":[-281.684082,126.335281,145.4925],"min":[-506.762634,-343.748779,78.2938843],"type":"VEC3","name":"accessorPositions"},{"bufferView":1,"byteOffset":16200,"componentType":5126,"count":150,"type":"VEC3","name":"accessorNormals"},{"bufferView":2,"byteOffset":4800,"componentType":5126,"count":150,"type":"VEC2","name":"accessorUVs"},{"bufferView":0,"byteOffset":1500,"componentType":5123,"count":150,"type":"SCALAR","name":"accessorIndices"},{"bufferView":1,"byteOffset":18000,"componentType":5126,"count":150,"max":[-49.90538,389.76886,153.351608],"min":[-471.9757,109.522972,80.03615],"type":"VEC3","name":"accessorPositions"},{"bufferView":1,"byteOffset":19800,"componentType":5126,"count":150,"type":"VEC3","name":"accessorNormals"},{"bufferView":2,"byteOffset":6000,"componentType":5126,"count":150,"type":"VEC2","name":"accessorUVs"},{"bufferView":0,"byteOffset":1800,"componentType":5123,"count":150,"type":"SCALAR","name":"accessorIndices"},{"bufferView":1,"byteOffset":21600,"componentType":5126,"count":150,"max":[230.5949,828.9536,342.2776],"min":[-540.9926,600.3247,178.272369],"type":"VEC3","name":"accessorPositions"},{"bufferView":1,"byteOffset":23400,"componentType":5126,"count":150,"type":"VEC3","name":"accessorNormals"},{"bufferView":2,"byteOffset":7200,"componentType":5126,"count":150,"type":"VEC2","name":"accessorUVs"},{"bufferView":0,"byteOffset":2100,"componentType":5123,"count":150,"type":"SCALAR","name":"accessorIndices"},{"bufferView":1,"byteOffset":25200,"componentType":5126,"count":150,"max":[358.439148,100.254669,272.147461],"min":[234.535568,-298.280029,180.0912],"type":"VEC3","name":"accessorPositions"},{"bufferView":1,"byteOffset":27000,"componentType":5126,"count":150,"type":"VEC3","name":"accessorNormals"},{"bufferView":2,"byteOffset":8400,"componentType":5126,"count":150,"type":"VEC2","name":"accessorUVs"},{"bufferView":0,"byteOffset":2400,"componentType":5123,"count":150,"type":"SCALAR","name":"accessorIndices"},{"bufferView":1,"byteOffset":28800,"componentType":5126,"count":150,"max":[105.283554,-414.785156,277.528229],"min":[-259.343231,-498.617,198.484344],"type":"VEC3","name":"accessorPositions"},{"bufferView":1,"byteOffset":30600,"componentType":5126,"count":150,"type":"VEC3","name":"accessorNormals"},{"bufferView":2,"byteOffset":9600,"componentType":5126,"count":150,"type":"VEC2","name":"accessorUVs"},{"bufferView":0,"byteOffset":2700,"componentType":5123,"count":150,"type":"SCALAR","name":"accessorIndices"},{"bufferView":1,"byteOffset":32400,"componentType":5126,"count":150,"max":[515.3621,-205.422058,384.8579],"min":[82.50444,-668.4334,239.363724],"type":"VEC3","name":"accessorPositions"},{"bufferView":1,"byteOffset":34200,"componentType":5126,"count":150,"type":"VEC3","name":"accessorNormals"},{"bufferView":2,"byteOffset":10800,"componentType":5126,"count":150,"type":"VEC2","name":"accessorUVs"},{"bufferView":0,"byteOffset":3000,"componentType":5123,"count":150,"type":"SCALAR","name":"accessorIndices"},{"bufferView":1,"byteOffset":36000,"componentType":5126,"count":150,"max":[425.3866,411.4249,283.159576],"min":[223.075027,-52.9537964,147.116684],"type":"VEC3","name":"accessorPositions"},{"bufferView":1,"byteOffset":37800,"componentType":5126,"count":150,"type":"VEC3","name":"accessorNormals"},{"bufferView":2,"byteOffset":12000,"componentType":5126,"count":150,"type":"VEC2","name":"accessorUVs"},{"bufferView":0,"byteOffset":3300,"componentType":5123,"count":150,"type":"SCALAR","name":"accessorIndices"},{"bufferView":1,"byteOffset":39600,"componentType":5126,"count":150,"max":[-539.353638,694.039368,293.0956],"min":[-847.8444,193.762634,172.05545],"type":"VEC3","name":"accessorPositions"},{"bufferView":1,"byteOffset":41400,"componentType":5126,"count":150,"type":"VEC3","name":"accessorNormals"},{"bufferView":2,"byteOffset":13200,"componentType":5126,"count":150,"type":"VEC2","name":"accessorUVs"},{"bufferView":0,"byteOffset":3600,"componentType":5123,"count":150,"type":"SCALAR","name":"accessorIndices"},{"bufferView":1,"byteOffset":43200,"componentType":5126,"count":150,"max":[608.810059,394.8562,332.0478],"min":[477.458252,-131.822021,213.435059],"type":"VEC3","name":"accessorPositions"},{"bufferView":1,"byteOffset":45000,"componentType":5126,"count":150,"type":"VEC3","name":"accessorNormals"},{"bufferView":2,"byteOffset":14400,"componentType":5126,"count":150,"type":"VEC2","name":"accessorUVs"},{"bufferView":0,"byteOffset":3900,"componentType":5123,"count":150,"type":"SCALAR","name":"accessorIndices"},{"bufferView":1,"byteOffset":46800,"componentType":5126,"count":150,"max":[384.704346,1039.84265,807.7417],"min":[-571.093,724.5113,535.5357],"type":"VEC3","name":"accessorPositions"},{"bufferView":1,"byteOffset":48600,"componentType":5126,"count":150,"type":"VEC3","name":"accessorNormals"},{"bufferView":2,"byteOffset":15600,"componentType":5126,"count":150,"type":"VEC2","name":"accessorUVs"},{"bufferView":0,"byteOffset":4200,"componentType":5123,"count":150,"type":"SCALAR","name":"accessorIndices"},{"bufferView":1,"byteOffset":50400,"componentType":5126,"count":150,"max":[553.074341,62.7953873,853.203369],"min":[-147.675568,-718.893433,621.407043],"type":"VEC3","name":"accessorPositions"},{"bufferView":1,"byteOffset":52200,"componentType":5126,"count":150,"type":"VEC3","name":"accessorNormals"},{"bufferView":2,"byteOffset":16800,"componentType":5126,"count":150,"type":"VEC2","name":"accessorUVs"},{"bufferView":0,"byteOffset":4500,"componentType":5123,"count":150,"type":"SCALAR","name":"accessorIndices"},{"bufferView":1,"byteOffset":54000,"componentType":5126,"count":150,"max":[-117.755913,265.321259,861.6752],"min":[-1067.52563,-746.630249,486.1723],"type":"VEC3","name":"accessorPositions"},{"bufferView":1,"byteOffset":55800,"componentType":5126,"count":150,"type":"VEC3","name":"accessorNormals"},{"bufferView":2,"byteOffset":18000,"componentType":5126,"count":150,"type":"VEC2","name":"accessorUVs"},{"bufferView":0,"byteOffset":4800,"componentType":5123,"count":648,"type":"SCALAR","name":"accessorIndices"},{"bufferView":1,"byteOffset":57600,"componentType":5126,"count":648,"max":[702.5046,1156.41455,613.5718],"min":[-1110.66309,-729.9227,7.97180939],"type":"VEC3","name":"accessorPositions"},{"bufferView":1,"byteOffset":65376,"componentType":5126,"count":648,"type":"VEC3","name":"accessorNormals"},{"bufferView":2,"byteOffset":19200,"componentType":5126,"count":648,"type":"VEC2","name":"accessorUVs"}],"bufferViews":[{"buffer":0,"byteLength":6096,"name":"bufferViewScalar"},{"buffer":0,"byteOffset":6096,"byteLength":73152,"byteStride":12,"name":"bufferViewFloatVec3"},{"buffer":0,"byteOffset":79248,"byteLength":24384,"byteStride":8,"name":"bufferViewFloatVec2"}],"buffers":[{"uri":"Fog.bin","byteLength":103632}],"materials":[{"pbrMetallicRoughness":{"baseColorFactor":[0.481039643,0.5453146,0.833333433,0.100000024],"metallicFactor":0.0,"roughnessFactor":0.7},"emissiveFactor":[0.0,0.0,0.0],"alphaMode":"BLEND","name":"Smoke_mat"}]}