{"asset":{"version":"2.0","generator":"Babylon2Gltf2017","copyright":"2017 (c) BabylonJS"},"extensionsUsed":[],"extensionsRequired":[],"scene":0,"scenes":[{"nodes":[0,1]}],"nodes":[{"mesh":0,"translation":[243.2424,-170.677948,-136.491425],"rotation":[0.7071068,0.0,0.0,-0.707106769],"scale":[1.0,1.0,1.0],"name":"Object_421"},{"mesh":1,"translation":[243.2424,-170.677948,-136.491425],"rotation":[0.7071068,0.0,0.0,-0.707106769],"scale":[1.0,1.0,1.0],"name":"Object_422"}],"meshes":[{"primitives":[{"attributes":{"POSITION":1,"NORMAL":2,"TEXCOORD_0":3},"indices":0,"mode":4,"material":0}],"name":"Object_421"},{"primitives":[{"attributes":{"POSITION":5,"NORMAL":6,"TEXCOORD_0":7},"indices":4,"mode":4,"material":1}],"name":"Object_422"}],"accessors":[{"bufferView":0,"componentType":5123,"count":456,"type":"SCALAR","name":"accessorIndices"},{"bufferView":1,"componentType":5126,"count":456,"max":[-223.52272,-109.042229,212.261642],"min":[-254.2578,-163.339554,177.915237],"type":"VEC3","name":"accessorPositions"},{"bufferView":1,"byteOffset":5472,"componentType":5126,"count":456,"type":"VEC3","name":"accessorNormals"},{"bufferView":2,"componentType":5126,"count":456,"type":"VEC2","name":"accessorUVs"},{"bufferView":0,"byteOffset":912,"componentType":5123,"count":2250,"type":"SCALAR","name":"accessorIndices"},{"bufferView":1,"byteOffset":10944,"componentType":5126,"count":2250,"max":[-229.80072,-124.382164,217.33078],"min":[-245.444626,-147.2109,185.623611],"type":"VEC3","name":"accessorPositions"},{"bufferView":1,"byteOffset":37944,"componentType":5126,"count":2250,"type":"VEC3","name":"accessorNormals"},{"bufferView":2,"byteOffset":3648,"componentType":5126,"count":2250,"type":"VEC2","name":"accessorUVs"}],"bufferViews":[{"buffer":0,"byteLength":5412,"name":"bufferViewScalar"},{"buffer":0,"byteOffset":5412,"byteLength":64944,"byteStride":12,"name":"bufferViewFloatVec3"},{"buffer":0,"byteOffset":70356,"byteLength":21648,"byteStride":8,"name":"bufferViewFloatVec2"}],"buffers":[{"uri":"FlyingGnome.bin","byteLength":92004}],"materials":[{"pbrMetallicRoughness":{"baseColorFactor":[1.0,1.0,1.0,1.0],"baseColorTexture":{"index":0},"metallicFactor":0.0,"roughnessFactor":0.7},"emissiveFactor":[0.0,0.0,0.0],"alphaMode":"BLEND","name":"broom__mat"},{"pbrMetallicRoughness":{"baseColorFactor":[1.0,1.0,1.0,1.0],"baseColorTexture":{"index":1},"metallicFactor":0.0,"roughnessFactor":0.7},"emissiveFactor":[0.0,0.0,0.0],"alphaMode":"BLEND","name":"Imp_mat"}],"textures":[{"sampler":0,"source":0,"name":"broom__mat_baseColor.png"},{"sampler":1,"source":1,"name":"Imp_mat_baseColor.png"}],"images":[{"uri":"broom__mat_baseColor.png"},{"uri":"Imp_mat_baseColor.png"}],"samplers":[{"magFilter":9729,"minFilter":9987,"wrapS":10497,"wrapT":10497},{"magFilter":9729,"minFilter":9987,"wrapS":10497,"wrapT":10497}]}