{"asset":{"version":"2.0","generator":"Babylon2Gltf2017","copyright":"2017 (c) BabylonJS"},"extensionsUsed":[],"extensionsRequired":[],"scene":0,"scenes":[{"nodes":[0]}],"nodes":[{"mesh":0,"translation":[2.95756531,12.1415405,-1.05776215],"rotation":[0.7970685,0.3156181,-0.06903002,-0.5101979],"scale":[0.99999994,1.0,1.0],"name":"Object_50"}],"meshes":[{"primitives":[{"attributes":{"POSITION":1,"NORMAL":2,"TEXCOORD_0":3},"indices":0,"mode":4,"material":0}],"name":"Object_50"}],"accessors":[{"bufferView":0,"componentType":5123,"count":552,"type":"SCALAR","name":"accessorIndices"},{"bufferView":1,"componentType":5126,"count":552,"max":[11.6983061,33.7468758,18.560894],"min":[-11.6983032,-33.7468529,-18.5608749],"type":"VEC3","name":"accessorPositions"},{"bufferView":1,"byteOffset":6624,"componentType":5126,"count":552,"type":"VEC3","name":"accessorNormals"},{"bufferView":2,"componentType":5126,"count":552,"type":"VEC2","name":"accessorUVs"}],"bufferViews":[{"buffer":0,"byteLength":1104,"name":"bufferViewScalar"},{"buffer":0,"byteOffset":1104,"byteLength":13248,"byteStride":12,"name":"bufferViewFloatVec3"},{"buffer":0,"byteOffset":14352,"byteLength":4416,"byteStride":8,"name":"bufferViewFloatVec2"}],"buffers":[{"uri":"Bat.bin","byteLength":18768}],"materials":[{"pbrMetallicRoughness":{"baseColorFactor":[0.106502093,0.08144479,0.12451876,1.0],"metallicFactor":0.0,"roughnessFactor":0.7},"emissiveFactor":[0.0,0.0,0.0],"alphaMode":"OPAQUE","name":"bat_mat"}]}